# xmcd
#
# Track frame offsets:
#	150
#	2470
#	19167
#	35853
#	53221
#	74095
#	90293
#	104536
#	118768
#	136223
#	152387
#	166207
#	180584
#	194981
#	212942
#	229101
#	243933
#	259417
#	274729
#	291420
#	309373
#	328130
#
# Disc length: 4576 seconds
#
# Revision: 1
# Processed by: cddbd v1.4PL0 Copyright (c) Steve Scherf et al.
# Submitted via: audiograbber 1.81.02
#
DISCID=4711de16
DTITLE=Moleca 100 Vergonha - Quero Sentir o teu Prazer
DYEAR=2003
DGENRE=Country
TTITLE0=Abertura
TTITLE1=Nao sou Mais Feliz
TTITLE2=Voce Marcou em Mim
TTITLE3=O Amor e o Poder
TTITLE4=Pra Recomecar
TTITLE5=Quero Sentir o teu Prazer
TTITLE6=Refaca o meu coracao
TTITLE7=Prova de Amor
TTITLE8=Perdida sem Voce
TTITLE9=Historia de Amor
TTITLE10=Vou te Amar
TTITLE11=Esse Amor nao vai ter Fim
TTITLE12=Vi no Taro no Luar
TTITLE13=So um Dia
TTITLE14=Como eu te Amo
TTITLE15=Fala a Verdade
TTITLE16=Ilusao
TTITLE17=Um Grande Amor
TTITLE18=Nosso Amor
TTITLE19=Alem da Cama
TTITLE20=Meu Verdadeiro Amor
TTITLE21=Mulher Desmantelada
EXTD=
EXTT0=
EXTT1=
EXTT2=
EXTT3=
EXTT4=
EXTT5=
EXTT6=
EXTT7=
EXTT8=
EXTT9=
EXTT10=
EXTT11=
EXTT12=
EXTT13=
EXTT14=
EXTT15=
EXTT16=
EXTT17=
EXTT18=
EXTT19=
EXTT20=
EXTT21=
PLAYORDER=
